<?xml version="1.0" ?><!DOCTYPE svg  PUBLIC '-//W3C//DTD SVG 1.1//EN'  'http://www.w3.org/Graphics/SVG/1.1/DTD/svg11.dtd'><svg enable-background="new 0 0 100 100" height="100px" id="Layer_1" version="1.1" viewBox="0 0 100 100" width="100px" xml:space="preserve" xmlns="http://www.w3.org/2000/svg" xmlns:xlink="http://www.w3.org/1999/xlink"><path d="M90.764,43.526H65.251L44.545,2.461h-12.01l15.506,41.065H22.343l-5.6-11.198H2.644l9.399,18.8L2.644,69.929  h14.099l5.6-11.196h25.699L32.536,97.539h12.01l20.706-38.807h25.513c4.198,0,7.603-3.404,7.603-7.604  C98.366,46.931,94.962,43.526,90.764,43.526" fill="#2FCDD1"/><path d="M45.526,99.174H30.123l15.506-38.808H23.353l-5.6,11.196H0l10.216-20.435L0,30.693h17.753l5.6,11.199h22.326  L30.172,0.826h15.38l20.705,41.066h24.507c5.094,0,9.236,4.144,9.236,9.235c0,5.094-4.143,9.238-9.236,9.238H66.231L45.526,99.174z   M34.948,95.905h8.617l20.707-38.807h26.492c3.29,0,5.968-2.679,5.968-5.971c0-3.29-2.678-5.968-5.968-5.968H64.246L43.54,4.095  h-8.641L50.405,45.16H21.333l-5.6-11.198H5.289l8.582,17.166L5.289,68.294h10.444l5.6-11.195h29.122L34.948,95.905z" fill="#211915"/><rect fill="#FFFFFF" height="3.268" transform="matrix(0.4503 0.8929 -0.8929 0.4503 40.0956 -31.9971)" width="19.986" x="36.04" y="14.929"/><polygon fill="#FFFFFF" points="39.767,50.355 18.09,50.355 12.289,38.753 15.212,37.292 20.11,47.088 39.767,47.088 "/></svg>