<?xml version="1.0" encoding="UTF-8"?>
<!DOCTYPE svg PUBLIC "-//W3C//DTD SVG 1.1//EN" "http://www.w3.org/Graphics/SVG/1.1/DTD/svg11.dtd">
<!-- Creator: CorelDRAW X6 -->
<svg xmlns="http://www.w3.org/2000/svg" xml:space="preserve" width="100%" height="100%" version="1.1" style="shape-rendering:geometricPrecision; text-rendering:geometricPrecision; image-rendering:optimizeQuality; fill-rule:evenodd; clip-rule:evenodd"
viewBox="0 0 500 500"
 xmlns:xlink="http://www.w3.org/1999/xlink">
 <defs>
  <style type="text/css">
   <![CDATA[
    .fil0 {fill:#202020}
   ]]>
  </style>
 </defs>
 <g id="Layer_x0020_1">
  <metadata id="CorelCorpID_0Corel-Layer"/>
  <path class="fil0" d="M140 106l220 0c10,0 18,8 18,18l0 85c0,11 -8,19 -18,19l-220 0c-10,0 -18,-8 -18,-19l0 -85c0,-10 8,-18 18,-18zm196 167c16,0 29,13 29,28 0,16 -13,29 -29,29 -15,0 -28,-13 -28,-29 0,-15 13,-28 28,-28zm-172 0c15,0 28,13 28,28 0,16 -13,29 -28,29 -16,0 -29,-13 -29,-29 0,-15 13,-28 29,-28zm-2 174c-6,0 -11,-5 -11,-12 0,-6 5,-11 11,-11l176 0c6,0 11,5 11,11 0,7 -5,12 -11,12l-176 0zm-22 -427l220 0c27,0 48,22 48,49l0 269c0,21 -14,40 -33,46l46 74c4,7 2,16 -4,20 -7,4 -16,2 -20,-5l-54 -86 -186 0 -54 86c-4,7 -13,9 -20,5 -6,-4 -8,-13 -4,-20l46 -74c-19,-6 -33,-25 -33,-46l0 -269c0,-27 21,-49 48,-49zm45 33l130 0c7,0 12,6 12,13 0,7 -5,13 -12,13l-130 0c-7,0 -12,-6 -12,-13 0,-7 5,-13 12,-13z"/>
 </g>
</svg>
